<mxfile host="app.diagrams.net" modified="2022-07-21T14:39:50.044Z" agent="5.0 (X11; Linux x86_64) AppleWebKit/537.36 (KHTML, like Gecko) Chrome/103.0.0.0 Safari/537.36" etag="Ej7pJyFAfzLrkeyRvMos" version="20.1.4" type="github">
  <diagram id="xqRSgT5QblgiyWdLd9_h" name="PÃ¡gina-1">
    <mxGraphModel dx="2127" dy="461" grid="1" gridSize="10" guides="1" tooltips="1" connect="1" arrows="1" fold="1" page="1" pageScale="1" pageWidth="827" pageHeight="1169" math="0" shadow="0">
      <root>
        <mxCell id="0" />
        <mxCell id="1" parent="0" />
        <mxCell id="T0Opw6EWIulEm3wfmYtk-1" value="ANIMAL" style="swimlane;" vertex="1" parent="1">
          <mxGeometry x="-120" y="10" width="200" height="200" as="geometry" />
        </mxCell>
        <mxCell id="T0Opw6EWIulEm3wfmYtk-3" value="id" style="rounded=0;whiteSpace=wrap;html=1;" vertex="1" parent="T0Opw6EWIulEm3wfmYtk-1">
          <mxGeometry y="20" width="200" height="30" as="geometry" />
        </mxCell>
        <mxCell id="T0Opw6EWIulEm3wfmYtk-4" value="nome" style="rounded=0;whiteSpace=wrap;html=1;" vertex="1" parent="T0Opw6EWIulEm3wfmYtk-1">
          <mxGeometry y="50" width="200" height="30" as="geometry" />
        </mxCell>
        <mxCell id="T0Opw6EWIulEm3wfmYtk-7" value="idade" style="rounded=0;whiteSpace=wrap;html=1;" vertex="1" parent="T0Opw6EWIulEm3wfmYtk-1">
          <mxGeometry y="80" width="200" height="30" as="geometry" />
        </mxCell>
        <mxCell id="T0Opw6EWIulEm3wfmYtk-6" value="sexo_biologico" style="rounded=0;whiteSpace=wrap;html=1;" vertex="1" parent="T0Opw6EWIulEm3wfmYtk-1">
          <mxGeometry y="110" width="200" height="30" as="geometry" />
        </mxCell>
        <mxCell id="T0Opw6EWIulEm3wfmYtk-5" value="especie_id" style="rounded=0;whiteSpace=wrap;html=1;" vertex="1" parent="T0Opw6EWIulEm3wfmYtk-1">
          <mxGeometry y="140" width="200" height="30" as="geometry" />
        </mxCell>
        <mxCell id="T0Opw6EWIulEm3wfmYtk-14" value="" style="sketch=0;aspect=fixed;html=1;points=[];align=center;image;fontSize=12;image=img/lib/mscae/Key.svg;" vertex="1" parent="T0Opw6EWIulEm3wfmYtk-1">
          <mxGeometry x="20" y="26.129999999999995" width="11" height="17.74" as="geometry" />
        </mxCell>
        <mxCell id="T0Opw6EWIulEm3wfmYtk-37" value="" style="sketch=0;aspect=fixed;pointerEvents=1;shadow=0;dashed=0;html=1;strokeColor=none;labelPosition=center;verticalLabelPosition=bottom;verticalAlign=top;align=center;fillColor=#00188D;shape=mxgraph.mscae.enterprise.key_permissions" vertex="1" parent="T0Opw6EWIulEm3wfmYtk-1">
          <mxGeometry x="170" y="144.61" width="10.8" height="20.77" as="geometry" />
        </mxCell>
        <mxCell id="T0Opw6EWIulEm3wfmYtk-2" value="CUIDADOR" style="swimlane;" vertex="1" parent="1">
          <mxGeometry x="750" y="10" width="200" height="200" as="geometry" />
        </mxCell>
        <mxCell id="T0Opw6EWIulEm3wfmYtk-12" value="id" style="rounded=0;whiteSpace=wrap;html=1;" vertex="1" parent="T0Opw6EWIulEm3wfmYtk-2">
          <mxGeometry y="23" width="200" height="27" as="geometry" />
        </mxCell>
        <mxCell id="T0Opw6EWIulEm3wfmYtk-19" value="" style="sketch=0;aspect=fixed;html=1;points=[];align=center;image;fontSize=12;image=img/lib/mscae/Key.svg;" vertex="1" parent="T0Opw6EWIulEm3wfmYtk-2">
          <mxGeometry x="20" y="27.629999999999995" width="11" height="17.74" as="geometry" />
        </mxCell>
        <mxCell id="T0Opw6EWIulEm3wfmYtk-29" value="nome" style="rounded=0;whiteSpace=wrap;html=1;" vertex="1" parent="T0Opw6EWIulEm3wfmYtk-2">
          <mxGeometry y="50" width="200" height="30" as="geometry" />
        </mxCell>
        <mxCell id="T0Opw6EWIulEm3wfmYtk-34" value="gerente_id" style="rounded=0;whiteSpace=wrap;html=1;" vertex="1" parent="T0Opw6EWIulEm3wfmYtk-2">
          <mxGeometry y="106.11" width="200" height="27" as="geometry" />
        </mxCell>
        <mxCell id="T0Opw6EWIulEm3wfmYtk-36" value="" style="sketch=0;aspect=fixed;pointerEvents=1;shadow=0;dashed=0;html=1;strokeColor=none;labelPosition=center;verticalLabelPosition=bottom;verticalAlign=top;align=center;fillColor=#00188D;shape=mxgraph.mscae.enterprise.key_permissions" vertex="1" parent="T0Opw6EWIulEm3wfmYtk-2">
          <mxGeometry x="170" y="108.11000000000003" width="10.8" height="20.77" as="geometry" />
        </mxCell>
        <mxCell id="T0Opw6EWIulEm3wfmYtk-39" value="sobrenome" style="rounded=0;whiteSpace=wrap;html=1;" vertex="1" parent="T0Opw6EWIulEm3wfmYtk-2">
          <mxGeometry y="76.11" width="200" height="30" as="geometry" />
        </mxCell>
        <mxCell id="T0Opw6EWIulEm3wfmYtk-8" value="ESPECIE" style="swimlane;" vertex="1" parent="1">
          <mxGeometry x="160" y="280" width="200" height="200" as="geometry" />
        </mxCell>
        <mxCell id="T0Opw6EWIulEm3wfmYtk-9" value="id" style="rounded=0;whiteSpace=wrap;html=1;" vertex="1" parent="T0Opw6EWIulEm3wfmYtk-8">
          <mxGeometry y="23" width="200" height="27" as="geometry" />
        </mxCell>
        <mxCell id="T0Opw6EWIulEm3wfmYtk-10" value="nome" style="rounded=0;whiteSpace=wrap;html=1;" vertex="1" parent="T0Opw6EWIulEm3wfmYtk-8">
          <mxGeometry y="49" width="200" height="27" as="geometry" />
        </mxCell>
        <mxCell id="T0Opw6EWIulEm3wfmYtk-11" value="localizacao" style="rounded=0;whiteSpace=wrap;html=1;" vertex="1" parent="T0Opw6EWIulEm3wfmYtk-8">
          <mxGeometry y="75.5" width="200" height="27" as="geometry" />
        </mxCell>
        <mxCell id="T0Opw6EWIulEm3wfmYtk-18" value="" style="sketch=0;aspect=fixed;html=1;points=[];align=center;image;fontSize=12;image=img/lib/mscae/Key.svg;" vertex="1" parent="T0Opw6EWIulEm3wfmYtk-8">
          <mxGeometry x="20" y="27.629999999999995" width="11" height="17.74" as="geometry" />
        </mxCell>
        <mxCell id="T0Opw6EWIulEm3wfmYtk-13" style="edgeStyle=orthogonalEdgeStyle;rounded=0;orthogonalLoop=1;jettySize=auto;html=1;exitX=0;exitY=0.5;exitDx=0;exitDy=0;entryX=1;entryY=0.5;entryDx=0;entryDy=0;strokeColor=#000099;" edge="1" parent="1" source="T0Opw6EWIulEm3wfmYtk-9" target="T0Opw6EWIulEm3wfmYtk-5">
          <mxGeometry relative="1" as="geometry" />
        </mxCell>
        <mxCell id="T0Opw6EWIulEm3wfmYtk-20" value="ANIMAL_CUIDADOR" style="swimlane;" vertex="1" parent="1">
          <mxGeometry x="300" y="60" width="200" height="200" as="geometry" />
        </mxCell>
        <mxCell id="T0Opw6EWIulEm3wfmYtk-21" value="animal_id" style="rounded=0;whiteSpace=wrap;html=1;" vertex="1" parent="T0Opw6EWIulEm3wfmYtk-20">
          <mxGeometry y="23" width="200" height="27" as="geometry" />
        </mxCell>
        <mxCell id="T0Opw6EWIulEm3wfmYtk-22" value="" style="sketch=0;aspect=fixed;html=1;points=[];align=center;image;fontSize=12;image=img/lib/mscae/Key.svg;" vertex="1" parent="T0Opw6EWIulEm3wfmYtk-20">
          <mxGeometry x="20" y="27.629999999999995" width="11" height="17.74" as="geometry" />
        </mxCell>
        <mxCell id="T0Opw6EWIulEm3wfmYtk-23" value="cuidador_id" style="rounded=0;whiteSpace=wrap;html=1;" vertex="1" parent="T0Opw6EWIulEm3wfmYtk-20">
          <mxGeometry y="50" width="200" height="27" as="geometry" />
        </mxCell>
        <mxCell id="T0Opw6EWIulEm3wfmYtk-17" value="" style="sketch=0;aspect=fixed;html=1;points=[];align=center;image;fontSize=12;image=img/lib/mscae/Key.svg;" vertex="1" parent="T0Opw6EWIulEm3wfmYtk-20">
          <mxGeometry x="20" y="54.629999999999995" width="11" height="17.74" as="geometry" />
        </mxCell>
        <mxCell id="T0Opw6EWIulEm3wfmYtk-25" value="" style="sketch=0;aspect=fixed;pointerEvents=1;shadow=0;dashed=0;html=1;strokeColor=none;labelPosition=center;verticalLabelPosition=bottom;verticalAlign=top;align=center;fillColor=#00188D;shape=mxgraph.mscae.enterprise.key_permissions" vertex="1" parent="T0Opw6EWIulEm3wfmYtk-20">
          <mxGeometry x="170" y="24.630000000000024" width="10.8" height="20.77" as="geometry" />
        </mxCell>
        <mxCell id="T0Opw6EWIulEm3wfmYtk-26" value="" style="sketch=0;aspect=fixed;pointerEvents=1;shadow=0;dashed=0;html=1;strokeColor=none;labelPosition=center;verticalLabelPosition=bottom;verticalAlign=top;align=center;fillColor=#00188D;shape=mxgraph.mscae.enterprise.key_permissions" vertex="1" parent="T0Opw6EWIulEm3wfmYtk-20">
          <mxGeometry x="170" y="54.60000000000002" width="10.8" height="20.77" as="geometry" />
        </mxCell>
        <mxCell id="T0Opw6EWIulEm3wfmYtk-27" style="edgeStyle=orthogonalEdgeStyle;rounded=0;orthogonalLoop=1;jettySize=auto;html=1;exitX=1;exitY=0.5;exitDx=0;exitDy=0;entryX=0;entryY=0.5;entryDx=0;entryDy=0;strokeColor=#660033;shape=link;" edge="1" parent="1" source="T0Opw6EWIulEm3wfmYtk-23" target="T0Opw6EWIulEm3wfmYtk-12">
          <mxGeometry relative="1" as="geometry" />
        </mxCell>
        <mxCell id="T0Opw6EWIulEm3wfmYtk-28" style="edgeStyle=orthogonalEdgeStyle;shape=link;rounded=0;orthogonalLoop=1;jettySize=auto;html=1;exitX=1;exitY=0.5;exitDx=0;exitDy=0;entryX=0;entryY=0.5;entryDx=0;entryDy=0;strokeColor=#660033;" edge="1" parent="1" source="T0Opw6EWIulEm3wfmYtk-3" target="T0Opw6EWIulEm3wfmYtk-21">
          <mxGeometry relative="1" as="geometry" />
        </mxCell>
        <mxCell id="T0Opw6EWIulEm3wfmYtk-30" value="GERENTE" style="swimlane;" vertex="1" parent="1">
          <mxGeometry x="530" y="290" width="200" height="200" as="geometry" />
        </mxCell>
        <mxCell id="T0Opw6EWIulEm3wfmYtk-31" value="id" style="rounded=0;whiteSpace=wrap;html=1;" vertex="1" parent="T0Opw6EWIulEm3wfmYtk-30">
          <mxGeometry y="23" width="200" height="27" as="geometry" />
        </mxCell>
        <mxCell id="T0Opw6EWIulEm3wfmYtk-32" value="" style="sketch=0;aspect=fixed;html=1;points=[];align=center;image;fontSize=12;image=img/lib/mscae/Key.svg;" vertex="1" parent="T0Opw6EWIulEm3wfmYtk-30">
          <mxGeometry x="20" y="27.629999999999995" width="11" height="17.74" as="geometry" />
        </mxCell>
        <mxCell id="T0Opw6EWIulEm3wfmYtk-33" value="nome" style="rounded=0;whiteSpace=wrap;html=1;" vertex="1" parent="T0Opw6EWIulEm3wfmYtk-30">
          <mxGeometry y="50" width="200" height="30" as="geometry" />
        </mxCell>
        <mxCell id="T0Opw6EWIulEm3wfmYtk-38" value="sobrenome" style="rounded=0;whiteSpace=wrap;html=1;" vertex="1" parent="T0Opw6EWIulEm3wfmYtk-30">
          <mxGeometry y="80" width="200" height="30" as="geometry" />
        </mxCell>
        <mxCell id="T0Opw6EWIulEm3wfmYtk-35" style="edgeStyle=orthogonalEdgeStyle;rounded=0;orthogonalLoop=1;jettySize=auto;html=1;exitX=1;exitY=0.5;exitDx=0;exitDy=0;strokeColor=#000099;" edge="1" parent="1" source="T0Opw6EWIulEm3wfmYtk-31">
          <mxGeometry relative="1" as="geometry">
            <mxPoint x="750" y="100" as="targetPoint" />
            <Array as="points">
              <mxPoint x="760" y="327" />
              <mxPoint x="760" y="250" />
              <mxPoint x="650" y="250" />
              <mxPoint x="650" y="104" />
            </Array>
          </mxGeometry>
        </mxCell>
      </root>
    </mxGraphModel>
  </diagram>
</mxfile>
